<?xml version="1.0" standalone="no"?><!DOCTYPE svg PUBLIC "-//W3C//DTD SVG 1.1//EN" "http://www.w3.org/Graphics/SVG/1.1/DTD/svg11.dtd"><svg t="1763185146645" class="icon" viewBox="0 0 1024 1024" version="1.1" xmlns="http://www.w3.org/2000/svg" p-id="5650" xmlns:xlink="http://www.w3.org/1999/xlink" width="200" height="200"><path d="M0 0m307.2 0l409.6 0q307.2 0 307.2 307.2l0 409.6q0 307.2-307.2 307.2l-409.6 0q-307.2 0-307.2-307.2l0-409.6q0-307.2 307.2-307.2Z" fill="#1389FF" p-id="5651"></path><path d="M716.8 215.296H307.2a307.2 307.2 0 0 0-307.2 307.2v201.728a307.2 307.2 0 0 1 307.2-307.2h409.6a307.2 307.2 0 0 1 307.2 307.2v-201.728a307.2 307.2 0 0 0-307.2-307.2z" fill="#2993FF" opacity=".5" p-id="5652"></path><path d="M716.8 417.024H307.2A307.2 307.2 0 0 0 0 720.384a298.752 298.752 0 0 0 18.432 100.864A307.2 307.2 0 0 1 307.2 618.752h409.6a307.2 307.2 0 0 1 288.512 202.496 298.752 298.752 0 0 0 18.688-100.864 307.2 307.2 0 0 0-307.2-303.36z" fill="#42A1FF" opacity=".5" p-id="5653"></path><path d="M1007.104 821.76a307.2 307.2 0 0 0-288.512-202.752h-409.6c-136.448 0-252.16 75.008-292.096 192.768a304.64 304.64 0 0 0 55.04 100.352 304.896 304.896 0 0 1 237.056-112.896h409.6a305.664 305.664 0 0 1 237.312 112.896 311.552 311.552 0 0 0 51.2-90.368z" fill="#5AACFF" opacity=".5" p-id="5654"></path><path d="M716.8 799.232H307.2a304.896 304.896 0 0 0-237.056 112.896A307.2 307.2 0 0 0 307.2 1024h409.6a307.2 307.2 0 0 0 237.056-111.872A304.896 304.896 0 0 0 716.8 799.232z" fill="#76BBFF" opacity=".5" p-id="5655"></path><path d="M728.32 223.744h-432.64a71.936 71.936 0 0 0-71.936 71.936v432.64a71.936 71.936 0 0 0 71.936 71.936h432.64a71.936 71.936 0 0 0 71.936-71.936v-432.64a71.936 71.936 0 0 0-71.936-71.936zM384 450.56h-35.328v166.912h-55.296V450.56h-34.048v-44.032H384z m107.776 166.912h-96.768v-210.944H486.4v40.96h-36.096v41.216h34.048v40.96h-34.048v46.848h40.192z m138.496-20.48a45.568 45.568 0 0 1-21.504 17.664 70.656 70.656 0 0 1-37.12 5.632 86.528 86.528 0 0 1-39.936-8.704 49.408 49.408 0 0 1-21.76-20.48 117.504 117.504 0 0 1-6.144-35.072v-14.592h52.736v25.6a28.16 28.16 0 0 0 0 6.656 12.288 12.288 0 0 0 11.52 11.008 12.544 12.544 0 0 0 8.96-2.816 17.152 17.152 0 0 0 3.584-12.032 48.384 48.384 0 0 0-6.4-23.296c-3.328-2.816-12.288-8.704-27.904-20.48a75.008 75.008 0 0 1-27.648-20.48 51.2 51.2 0 0 1-9.472-17.408 96.512 96.512 0 0 1-4.352-25.6 107.52 107.52 0 0 1 7.68-35.072 40.192 40.192 0 0 1 21.504-17.408 107.264 107.264 0 0 1 58.368-3.328 57.088 57.088 0 0 1 32.768 19.456 45.312 45.312 0 0 1 3.84 7.936 98.56 98.56 0 0 1 3.328 28.416v8.704h-51.2v-14.592a29.184 29.184 0 0 0-2.048-14.336 7.936 7.936 0 0 0-7.424-3.584 12.544 12.544 0 0 0-8.96 3.328 18.944 18.944 0 0 0-4.608 12.032 27.392 27.392 0 0 0 4.608 14.592 33.792 33.792 0 0 0 15.104 11.52 171.52 171.52 0 0 1 30.208 19.968 69.12 69.12 0 0 1 25.6 57.344v1.792a112.896 112.896 0 0 1-4.608 37.632z m135.68-149.504h-35.328v169.984h-55.296V450.56h-34.048v-44.032h123.392z" fill="#FFFFFF" p-id="5656"></path></svg>