<?xml version="1.0" standalone="no"?><!DOCTYPE svg PUBLIC "-//W3C//DTD SVG 1.1//EN" "http://www.w3.org/Graphics/SVG/1.1/DTD/svg11.dtd"><svg t="1763185101465" class="icon" viewBox="0 0 1024 1024" version="1.1" xmlns="http://www.w3.org/2000/svg" p-id="4896" xmlns:xlink="http://www.w3.org/1999/xlink" width="200" height="200"><path d="M512 64c247.04 0 448 200.96 448 448S759.04 960 512 960 64 759.04 64 512 264.96 64 512 64z m0 72c-207.337 0-376 168.663-376 376s168.663 376 376 376 376-168.663 376-376-168.663-376-376-376z" fill="#1C6EFF" p-id="4897"></path><path d="M575.505 512L430.747 327.036c-2.236-2.836-0.218-7.036 3.436-7.036h42.162a8.821 8.821 0 0 1 6.873 3.327l139.248 177.928a17.449 17.449 0 0 1 0 21.545L483.218 700.673c-1.637 2.127-4.2 3.327-6.873 3.327h-42.162c-3.654 0-5.672-4.2-3.436-7.036L575.505 512z m165.81 0L596.559 327.036c-2.236-2.836-0.218-7.036 3.437-7.036h42.161a8.821 8.821 0 0 1 6.873 3.327l139.248 177.928a17.449 17.449 0 0 1 0 21.545L649.03 700.673c-1.636 2.127-4.2 3.327-6.873 3.327h-42.161c-3.655 0-5.673-4.2-3.437-7.036L741.316 512z m-331.621 0L264.936 327.036c-2.236-2.836-0.218-7.036 3.436-7.036h42.162a8.821 8.821 0 0 1 6.873 3.327l139.248 177.928a17.449 17.449 0 0 1 0 21.545L317.407 700.673c-1.637 2.127-4.2 3.327-6.873 3.327h-42.162c-3.654 0-5.672-4.2-3.436-7.036L409.694 512z" fill="#44D7B6" p-id="4898"></path></svg>